<svg width="47" height="46" viewBox="0 0 47 46" fill="none" xmlns="http://www.w3.org/2000/svg">
<path d="M25.2299 0.418314L24.3912 0.903364L23.6662 1.32168L22.9964 1.70907L22.2715 2.12738L21.4327 2.61243L20.7093 3.03075L20.038 3.41813L19.3146 3.83645L18.4742 4.3215L17.7508 4.73981L17.0795 5.1272L16.3561 5.54552L15.5157 6.03056L14.7924 6.44888L14.121 6.83627L13.3977 7.25458L12.5573 7.73963L11.8339 8.15795L11.1626 8.54533L10.4392 8.96365L9.59879 9.4487L8.87542 9.86701L8.20408 10.2544L7.48071 10.6727L6.64031 11.1578L6.61268 11.174L5.91695 11.5761L5.2456 11.9651L4.52224 12.3834L3.68184 12.8685L2.95848 13.2868L2.28713 13.6742L1.56377 14.0925L0.723364 14.5775L0 14.9958L0.723364 15.4142L1.56377 15.8992L2.28713 16.3175L2.95848 16.7049L3.68184 17.1232L4.52224 17.6083L5.2456 18.0266L5.91695 18.414L6.61268 18.0119L6.64031 17.9957L7.48071 17.5106L8.20408 17.0923L8.87542 16.7033L9.59879 16.285L10.4392 15.7999L11.1626 15.3816L11.8339 14.9942L12.5573 14.5759L13.3977 14.0909L14.121 13.6725L14.7924 13.2851L15.5157 12.8668L16.3561 12.3818L17.0795 11.9635L17.7508 11.5761L18.4742 11.1578L19.3146 10.6727L20.038 10.2544L20.7093 9.86701L21.4327 9.4487V16.2899L20.7093 16.7082L20.038 17.0956L19.3146 17.5139L18.4742 17.9989L17.7508 18.4172L17.0795 18.8046L16.3561 19.2229L15.5174 19.708L14.794 20.1263L14.1227 20.5137L13.3993 20.932L12.5589 21.4171L11.8355 21.8354L11.1642 22.2244V17.1916L10.4408 17.6099L9.60041 18.0949L9.0461 18.4156L8.2057 18.9007L7.48234 19.319L6.64194 19.804V34.126L7.48234 34.611L8.2057 35.0294L9.0461 35.5144L9.60041 35.8351L10.4408 36.3201L11.1642 36.7384L12.0046 37.2235L12.5589 37.5441L13.3993 38.0292L14.1227 38.4475L14.9631 38.9325L15.5174 39.2532L16.3578 39.7383L17.0811 40.1566L17.9199 40.6416L18.4758 40.9623L19.3162 41.4473L20.0396 41.8656L20.8784 42.3507L21.4343 42.6713L22.2731 43.1564L22.9981 43.5747L23.8369 44.0597L24.3928 44.3804L25.2316 44.8655L25.9565 45.2838V23.1505L25.2332 22.7322L24.3928 22.2472L23.6694 21.8289L22.9981 21.4398V20.6032L23.8385 20.1182L24.3928 19.7975L25.2332 19.3125L25.9565 18.8941V0L25.2316 0.418314H25.2299ZM21.4327 37.6516L20.7093 37.2332L20.038 36.8442L19.3146 36.4259L18.4742 35.9409L17.7508 35.5226L17.0795 35.1352L16.3561 34.7168L15.5157 34.2318L14.7924 33.8135L14.121 33.4261L13.3977 33.0078L12.5573 32.5227L11.8339 32.1044L11.1626 31.717V29.072L11.8339 28.6847L12.5573 28.2663L13.3977 27.7813L14.121 27.363L14.7924 26.974L15.5157 26.5556L16.3561 26.0706L17.0795 25.6523L17.7508 25.2633L18.4742 25.6816L19.3146 26.1666L20.038 26.5849L20.7093 26.974L21.4327 27.3923V37.6532V37.6516Z" fill="white"/>
<path d="M46.661 11.1952V18.8111L45.9376 19.2295L45.0972 19.7145L44.3738 20.1328L43.7025 20.5202L42.9791 20.9385L42.1404 21.4252V13.614L41.586 13.2917L40.7456 12.8083L40.0223 12.3883L39.1819 11.9033L38.6276 11.5826L37.7872 11.0976L37.0622 10.6776L36.2234 10.1926L35.6691 9.87191L34.8287 9.38687L34.1053 8.96855L33.2649 8.4835L32.7106 8.16285L31.8719 7.6778V37.6207L32.5416 37.2333L33.2649 36.8149L34.1053 36.3299L34.8287 35.9116L35.5 35.5226L36.2234 35.1043L37.0638 34.6192L37.7872 34.2009L38.4585 33.8135L39.1819 33.3952L40.0223 32.9101L40.7456 32.4902L41.417 32.1028L42.1404 31.6845V24.845L42.9791 24.3583L43.7025 23.9416L44.3738 23.5542L45.0972 23.1343L45.9376 22.6492L46.661 22.2309V34.2985L45.9376 34.7169L45.0972 35.2019L44.5429 35.5226L43.7025 36.0092L42.9791 36.4276L42.1404 36.9126L41.586 37.2333L40.7456 37.7199L40.0223 38.1366L39.1819 38.6233L38.6276 38.944L37.7872 39.429L37.0638 39.8473L36.2234 40.334L35.6691 40.653L34.8287 41.1397L34.1053 41.558L33.2649 42.0431L32.7106 42.3637L31.8719 42.8488L31.1469 43.2687L30.3081 43.7538L29.7522 44.0744L28.9134 44.5595L28.1884 44.9778L27.3496 45.4628V0.0309448L28.1884 0.515994L28.9134 0.934309L29.5831 1.3217L30.3081 1.74001L31.1469 2.22506L31.8719 2.645L32.5416 3.03239L33.2649 3.45071L34.1053 3.93576L34.8287 4.3557L35.5 4.74309L36.2234 5.15977L37.0622 5.64645L37.7872 6.06476L38.4569 6.45215L39.1819 6.87047L40.0223 7.35715L40.7456 7.77546L41.4154 8.16285L42.1404 8.58116L42.9791 9.06621L43.7025 9.48453L44.3738 9.87191L45.0972 10.2902L45.9376 10.7769L46.661 11.1952Z" fill="#E73828"/>
</svg>
